<svg xmlns="http://www.w3.org/2000/svg" version="1.1" xmlns:xlink="http://www.w3.org/1999/xlink" xmlns:svgjs="http://svgjs.dev/svgjs" width="1440" height="560" preserveAspectRatio="none" viewBox="0 0 1440 560"><g mask="url(&quot;#SvgjsMask1000&quot;)" fill="none"><rect width="1440" height="560" x="0" y="0" fill="#1e3266"></rect><path d="M1560 560L0 560 L0 301.17Q44.89 274.06, 72 318.96Q141.44 268.4, 192 337.85Q258.81 284.67, 312 351.48Q381.68 301.16, 432 370.84Q452.53 271.37, 552 291.89Q594.74 262.63, 624 305.37Q702.53 263.9, 744 342.43Q749.94 276.37, 816 282.31Q885.95 232.26, 936 302.22Q999.15 293.37, 1008 356.52Q1053.33 281.85, 1128 327.18Q1145.3 272.48, 1200 289.78Q1271.01 240.78, 1320 311.79Q1374.25 246.04, 1440 300.29Q1521.04 261.33, 1560 342.36z" fill="#182f5d"></path><path d="M1512 560L0 560 L0 382.26Q87.36 349.62, 120 436.97Q165.6 362.57, 240 408.16Q279.04 327.2, 360 366.23Q451.53 337.76, 480 429.29Q532.49 361.78, 600 414.28Q640.19 334.47, 720 374.66Q762.01 344.67, 792 386.68Q866.63 341.31, 912 415.93Q947.28 331.21, 1032 366.49Q1097.18 311.67, 1152 376.85Q1217.86 322.71, 1272 388.57Q1340.73 337.3, 1392 406.03Q1428.07 322.1, 1512 358.17z" fill="#25467d"></path><path d="M1536 560L0 560 L0 486.46Q15.52 429.98, 72 445.5Q143.67 397.17, 192 468.84Q244.84 449.68, 264 502.52Q264.35 430.87, 336 431.22Q436.82 412.04, 456 512.86Q496.5 433.36, 576 473.85Q590.51 416.36, 648 430.87Q689.31 400.18, 720 441.48Q775.4 424.88, 792 480.28Q868.64 436.93, 912 513.57Q920.58 450.15, 984 458.73Q1055.35 410.08, 1104 481.43Q1172.15 429.58, 1224 497.73Q1247.13 400.86, 1344 423.99Q1387.9 395.89, 1416 439.8Q1483.42 387.23, 1536 454.65z" fill="#356cb1"></path><path d="M1560 560L0 560 L0 533.78Q80.16 493.94, 120 574.11Q166.88 501, 240 547.88Q265.75 501.63, 312 527.38Q393.38 488.76, 432 570.14Q461.44 479.58, 552 509.02Q600.8 485.82, 624 534.62Q692 482.62, 744 550.62Q809.63 496.25, 864 561.87Q931.77 509.64, 984 577.42Q1021.41 494.83, 1104 532.23Q1177.53 485.76, 1224 559.29Q1272.9 536.19, 1296 585.1Q1326.91 544.01, 1368 574.93Q1370.59 505.52, 1440 508.11Q1505.36 453.47, 1560 518.82z" fill="white"></path></g><defs><mask id="SvgjsMask1000"><rect width="1440" height="560" fill="#ffffff"></rect></mask></defs></svg>